<svg width="512" height="512" viewBox="0 0 512 512" fill="none" xmlns="http://www.w3.org/2000/svg">
    <defs>
        <linearGradient id="goldGrad" x1="0%" y1="0%" x2="100%" y2="100%">
            <stop offset="0%" style="stop-color:#fbbf24;stop-opacity:1" />
            <stop offset="100%" style="stop-color:#d97706;stop-opacity:1" />
        </linearGradient>
    </defs>
    <rect width="512" height="512" rx="140" fill="#020617"/>
    <path d="M334.4 321.8c-62.1 0-112.5-50.4-112.5-112.5 0-25.3 8.3-48.6 22.4-67.4-55.5 9.7-97.4 58-97.4 116.1 0 65.1 52.8 117.9 117.9 117.9 58.1 0 106.4-41.9 116.1-97.4-18.8 14.1-42.1 23.3-66.5 23.3z" fill="url(#goldGrad)"/>
    <path d="M360 140l10 30 30 10-30 10-10 30-10-30-30-10 30-10 10-30z" fill="#ffffff" opacity="0.9"/>
</svg>
